<svg xmlns="http://www.w3.org/2000/svg" width="685.86" height="91.02" viewBox="0 0 685.86 91.02">
  <g id="Layer_2" data-name="Layer 2">
    <g id="Layer_1-2" data-name="Layer 1">
      <g>
        <path d="M12.25,107.84l.07-89.54H16l-.06,86,55.49,0v3.53Z" transform="translate(-12.25 -18.3)" fill="#602464"/>
        <path d="M139.91,108.82q-10.72,0-18-3.72A30.58,30.58,0,0,1,110.34,95,44.22,44.22,0,0,1,104,80.44a70.64,70.64,0,0,1-2-16.65V18.64h9.46V63.79a65.36,65.36,0,0,0,1.39,13.5A36.44,36.44,0,0,0,117.52,89a23.54,23.54,0,0,0,8.64,8.2q5.43,3,13.63,3t13.81-3.15a24.23,24.23,0,0,0,8.7-8.39A37.18,37.18,0,0,0,166.9,77a62.56,62.56,0,0,0,1.39-13.18V18.64h9.46V63.79A69.56,69.56,0,0,1,175.67,81a42.72,42.72,0,0,1-6.56,14.38,31.34,31.34,0,0,1-11.67,9.83Q150.26,108.82,139.91,108.82Z" transform="translate(-12.25 -18.3)" fill="#602464"/>
        <path d="M225,108.19V18.64h37.58a24.47,24.47,0,0,1,11.1,2.52,30.29,30.29,0,0,1,14.63,16,29,29,0,0,1,2,10.6A31.61,31.61,0,0,1,287,62a28.11,28.11,0,0,1-9.4,10.91A24.52,24.52,0,0,1,263.32,77H239v31.15Zm14-43.64h23.58a11.7,11.7,0,0,0,6.94-2.14,14.54,14.54,0,0,0,4.79-6.06,20.5,20.5,0,0,0,1.77-8.57A18.68,18.68,0,0,0,274,39a14.86,14.86,0,0,0-5.24-5.86,13.09,13.09,0,0,0-7.12-2H239Z" transform="translate(-12.25 -18.3)" fill="#602464"/>
        <path d="M343.77,19.73l27.49,0,28.44,89.57-25,0-4.62-17.54-25.3,0-4.64,17.53-25.1,0Zm22,55.63-8.3-31.53-8.35,31.52Z" transform="translate(-12.25 -18.3)" fill="#602464"/>
        <g>
          <path d="M464.35,72.12a11.55,11.55,0,0,1,2.88-7.66,10.28,10.28,0,0,1,8-3.54,9.92,9.92,0,0,1,5.27,1.36,8.49,8.49,0,0,1,3.3,3.54L480.68,68a5.22,5.22,0,0,0-1.48-2.08,5.91,5.91,0,0,0-2-1.06,7.37,7.37,0,0,0-2.1-.31,5.93,5.93,0,0,0-2.89.68,6.11,6.11,0,0,0-2.1,1.8,8.3,8.3,0,0,0-1.24,2.49,9.53,9.53,0,0,0-.4,2.75,8.84,8.84,0,0,0,.48,2.91,8.39,8.39,0,0,0,1.38,2.49,6.64,6.64,0,0,0,2.13,1.74,5.74,5.74,0,0,0,2.71.65,7,7,0,0,0,2.16-.36,6.26,6.26,0,0,0,2-1.13,5.12,5.12,0,0,0,1.46-2l3.35,1.93A7.06,7.06,0,0,1,482,81.34a10.51,10.51,0,0,1-3.3,1.77,11.67,11.67,0,0,1-3.65.6,9.34,9.34,0,0,1-4.29-1,10.85,10.85,0,0,1-3.39-2.66,12.8,12.8,0,0,1-2.23-3.73A11.62,11.62,0,0,1,464.35,72.12Z" transform="translate(-12.25 -18.3)" fill="#602464"/>
          <path d="M499.68,83.55V61.07h9.8a6.28,6.28,0,0,1,2.79.64,7.2,7.2,0,0,1,2.22,1.69,8,8,0,0,1,1.45,2.39,7.3,7.3,0,0,1,.52,2.69,7.77,7.77,0,0,1-.49,2.77,6.53,6.53,0,0,1-1.42,2.31,6.2,6.2,0,0,1-2.19,1.51l5.13,8.48H513l-4.6-7.63h-4.63v7.63Zm4-11.21h5.67a2.46,2.46,0,0,0,1.53-.52A3.38,3.38,0,0,0,512,70.41a4.89,4.89,0,0,0,.38-1.93,4.14,4.14,0,0,0-.45-2,3.92,3.92,0,0,0-1.18-1.36,2.56,2.56,0,0,0-1.5-.51h-5.51Z" transform="translate(-12.25 -18.3)" fill="#602464"/>
          <path d="M548.35,80v3.58H533V61.07h15.09v3.58H537v5.76h9.58v3.36H537V80Z" transform="translate(-12.25 -18.3)" fill="#602464"/>
          <path d="M570.48,61.07h4l8.32,22.48h-4.19l-1.95-5.76h-8.39l-2,5.76h-4.23Zm5.24,13.81-3.2-9.47-3.22,9.47Z" transform="translate(-12.25 -18.3)" fill="#602464"/>
          <path d="M612.36,64.65h-7.17v18.9h-4V64.65h-7.23V61.07h18.44Z" transform="translate(-12.25 -18.3)" fill="#602464"/>
          <path d="M627.73,83.55V61.07h4V83.55Z" transform="translate(-12.25 -18.3)" fill="#602464"/>
          <path d="M651,61.07l6.23,17.57,6.2-17.57h4.26l-8.52,22.48h-3.88l-8.57-22.48Z" transform="translate(-12.25 -18.3)" fill="#602464"/>
          <path d="M698.12,80v3.58H682.75V61.07h15.08v3.58h-11v5.76h9.57v3.36h-9.57V80Z" transform="translate(-12.25 -18.3)" fill="#602464"/>
        </g>
      </g>
    </g>
  </g>
</svg>
