<svg xmlns="http://www.w3.org/2000/svg" viewBox="0 0 258.44 142.35"><defs><style>.cls-1{fill:#fff;}.cls-2{fill:#231f20;}.cls-3{fill:#f16178;}</style></defs><g id="Layer_2" data-name="Layer 2"><g id="Layer_1-2" data-name="Layer 1"><path class="cls-1" d="M10.18,37.57v61h36.6v10.18H0V37.57Z"/><circle class="cls-1" cx="113.54" cy="71.17" r="71.17"/><path class="cls-2" d="M54.19,37.57H64.37v61H105v-61h10.18v61a10,10,0,0,1-.8,4,10.21,10.21,0,0,1-2.18,3.25,10.22,10.22,0,0,1-7.2,3H64.37a10.22,10.22,0,0,1-7.2-3A10.23,10.23,0,0,1,55,102.56a10,10,0,0,1-.79-4Z"/><path class="cls-2" d="M123.11,108.79V37.57h39q17.29,0,17.29,17.34V65q0,17.33-17.29,17.33h-28.8v26.42Zm10.18-36.6h28.26c2.71,0,4.67-.6,5.86-1.79s1.79-3.14,1.79-5.86V55.4q0-4.07-1.79-5.86c-1.19-1.19-3.15-1.78-5.86-1.78H133.29Z"/><path class="cls-1" d="M214.67,37.57l27.46,71.22H232L225.64,92.4H193.51l-6.3,16.39H177l27.46-71.22ZM197.39,82.22h24.33L209.6,50.83Z"/><circle class="cls-3" cx="251.22" cy="101.57" r="7.21"/></g></g></svg>